<svg xmlns="http://www.w3.org/2000/svg" width="1024" height="1024"><g color="#fff"><path style="marker:none" d="M69.223 667.77c253.363-203.677 677.818-198.818 921.673-28.672-79.73 3.335-179.368-98.513-465.522-99.784-235.781-1.047-350.942 127.563-456.151 128.457z" overflow="visible"/><path style="marker:none" d="M908.331 702.56c-138.809 41.514-277.396 127.652-388.338 220.375-14.998 12.535-7.562 21.16-1.184 27.634 10.724 10.885 52.353 31.5 63.897 36.407 21.147 8.987 54.034 5.42 69.265-8.816 101.141-94.544 266.107-222.743 334.717-244.59 23.3-7.42 9.611-24.15-15.153-32.194-15.444-5.018-39.32-5.96-63.204 1.183zm-104.045-40.407c-93.353 16.26-305.68 114.521-425.715 196.133-16.164 10.99-7.561 24.189-1.183 30.663 10.724 10.886 35.18 18.37 45.714 24.286 20.034 11.252 44.46 4.643 61.184-7.806 136.496-101.615 318.635-200.52 377.143-214.286 23.803-5.6 24.764-18.088 0-26.133-15.445-5.017-32.584-7.135-57.143-2.857zm-132.857-40C568.076 642.699 362.89 726.674 232.857 796.857c-17.2 9.284-13.276 19.904-6.898 26.378 10.724 10.885 32.924 21.605 44.286 25.714 17.422 6.302 42.176 7.558 64.04-4.949 133.067-76.116 361.493-179.09 408.572-182.857 24.375-1.95 24.764-18.088 0-26.133-15.445-5.017-46.978-17.718-71.428-12.857zm-90-27.143c-103.353 9.118-338.538 74.521-468.572 144.704-17.2 9.284-13.276 19.904-6.898 26.378 10.724 10.886 37.21 17.32 48.572 21.429 17.422 6.301 33.1 8.061 55.469-3.521 177.352-91.83 377.207-159.09 424.286-162.857 24.375-1.95 30.478-12.374 5.714-20.419-15.445-5.017-33.739-7.905-58.571-5.714zM505.575 327.946c-30.473 1.212-73.781 12.015-123.71 30.815a161.288 161.288 0 0 1 20.143 17.747c48.103-14.939 82.548-17.196 90.142-3.088 13.267 24.646-60.146 90.147-165.634 148.776 22.565-6.247 44.342-10.73 65.475-13.824 106.52-67.048 174.185-136.095 158.021-166.123-5.747-10.677-21.432-15.217-44.437-14.303zM126.51 497.992C56.223 550.466 16.221 598.864 29.049 622.694c5.773 10.726 21.59 15.258 44.767 14.29 16.599-13.982 36.316-26.442 57.094-37.477-23.32 3.376-39.122 1.028-43.974-7.985-7.02-13.041 10.266-37.518 43.685-66.362a160.502 160.502 0 0 1-4.111-27.168zm154.385-159.908c-82.54 3.06-146.97 72.45-143.908 154.991 1.21 32.665 12.8 62.486 31.492 86.418-6.42-57.651-25.643-109.616 22.214-160.141 61.744-65.188 139.224 18.609 135.11 84.782 44.751-22.247 80.519-42.189 103.391-61.298-19.623-62.809-79.377-107.308-148.299-104.752z" overflow="visible"/><path style="marker:none" d="M775 273.286c-7.143 21.428 12.857 52.857 44.286 50.714-15.357-6.071-22.857-10.714-27.5-19.286 24.643 13.572 39.285-6.785 70.714 8.929-17.857-23.572-30.188-19.976-50.357-27.143 14.17.655 21.117-7.412 35-1.429-19.286-20.714-59.643-40-72.143-11.785zM666.7 367.4c21.214 36.365 36.366 50.507 47.478 55.558 11.112 5.051 59.599 17.173 93.944 11.112-42.426-19.193-84.853-57.579-87.883-78.792-14.172 4.419-34.438 10.235-53.538 12.122zm62.63-231.325s26.264-13.132 54.548-14.142c28.285-1.01 55.559 18.183 65.66 31.315-29.294 9.09-58.589 34.345-65.66 46.467-15.152-22.224-54.548-63.64-54.548-63.64zM440 122.57c7.792 45.65 22.73 68.444 42.143 92.143 87.207-53.217 81.622 20.264 159.361 50.967 54.992 11.234 58.114-22.654 91.353-5.967C740 245.43 750 241.143 761.43 238.286 691.429 152.57 678.57 134 630 109.714 581.429 85.43 511.429 75.43 440 122.571zm321.062 149.044c-8.239 19.373-6.02 35.614 18.482 49.513 24.502 13.899 61.577 11.275 95.334 20.707-19.974-13.376-27.49-17.703-39.533-22.553 25.264 4.647 60.469 21.165 72.058 34.61 2.301-12.533-23.412-51.824-50.739-62.244 19.45 4.321 30.877 10.483 38.193 20.322-1.746-9.823-46.547-46.654-82.168-59.975-24.574-9.19-40.834-5.76-51.627 19.62zm-53.845-139.253c61.666-24.168 102.978-22.721 140.707-13.545 40.847 23.758 81.26 61.757 103.445 114.631-36.451-11.76-99.717-39.76-137.807-36.14-12.41 5.202-24.62 12.236-35.948 21.74-15.87-21.903-41.79-56.014-70.397-86.686zM621.25 317.54c41.854 2.335 84.536.444 111.301-1.347.05 14.38 2.417 27.898 6.25 40.452 21.562 31.608 83.521 62.392 115.864 82.91-54.846 16.732-109.888 9.914-154.267-6.316-30.98-23.01-58.368-53.603-79.148-115.7zm125.6-15.711s-131.331 13.654-194.175-9.426c-62.844-23.08-124.194-90.304-129.858-180.637 73.094-53.379 164.007-49.16 221.923-15.58 57.917 33.582 131.355 143.313 131.355 143.313-18.99 16.577-31.638 33.295-29.246 62.33z" overflow="visible" fill-rule="evenodd"/></g></svg>
